<svg xmlns="http://www.w3.org/2000/svg" width="32" height="32" fill="none" viewBox="0 0 32 32"><rect width="32" height="32" fill="url(#a)" rx="16"/><g filter="url(#b)"><path fill="#000" fill-opacity=".88" fill-rule="evenodd" d="M11.559 12.39c0-3.28 2.267-4.81 4.73-4.81 2.464 0 4.668 1.625 4.668 4.726l-1.253.152c0-1.488-1.07-3.191-3.426-3.191-1.53 0-3.018.714-3.018 3.123 0 1.476 1.456 2.915 4.22 2.915 1.313 2.418-.857 6.33-3.195 6.224-2.338-.107-2.855-1.808-2.44-3.848 0 0 3.14 1.099 3.14-1.097-1.35-.343-3.426-1.942-3.426-4.194Zm8.802 11.503c-.831 5.875-9.61 5.752-10.15-.028l1.639-.351c.448 4.03 6.041 3.904 6.7.19 1-5.621 4.591-8.129 4.591-11.722 0-4.666-3.074-6.67-6.366-6.67-4.174 0-7.386 2.648-7.386 7.713l-1.639-.14c0-6.71 4.54-9.26 9.025-9.26C20.925 3.625 25 6.47 25 12.14c0 4.135-4.003 7.185-4.64 11.753Z" clip-rule="evenodd"/></g><defs><linearGradient id="a" x1="16" x2="16" y1="0" y2="32" gradientUnits="userSpaceOnUse"><stop stop-color="#fff"/><stop offset="1" stop-color="#8B8B8B"/></linearGradient><filter id="b" width="17.25" height="27.625" x="7.75" y="3.625" color-interpolation-filters="sRGB" filterUnits="userSpaceOnUse"><feFlood flood-opacity="0" result="BackgroundImageFix"/><feBlend in="SourceGraphic" in2="BackgroundImageFix" result="shape"/><feColorMatrix in="SourceAlpha" result="hardAlpha" values="0 0 0 0 0 0 0 0 0 0 0 0 0 0 0 0 0 0 127 0"/><feOffset dy="3"/><feGaussianBlur stdDeviation="2"/><feComposite in2="hardAlpha" k2="-1" k3="1" operator="arithmetic"/><feColorMatrix values="0 0 0 0 0 0 0 0 0 0 0 0 0 0 0 0 0 0 0.25 0"/><feBlend in2="shape" result="effect1_innerShadow_220_149"/></filter></defs></svg>