<svg xmlns="http://www.w3.org/2000/svg" width="16" height="23" fill="none" viewBox="0 0 16 23"><path fill="#E5E5E5" fill-rule="evenodd" d="M3.533 8.187c0-3.064 2.102-4.493 4.388-4.493 2.285 0 4.33 1.518 4.33 4.414l-1.163.142c0-1.39-.993-2.98-3.178-2.98-1.42 0-2.8.667-2.8 2.917 0 1.378 1.351 2.723 3.915 2.723 1.218 2.258-.795 5.912-2.963 5.813-2.17-.1-2.649-1.689-2.265-3.595 0 0 2.913 1.027 2.913-1.024-1.252-.32-3.177-1.814-3.177-3.917Zm8.164 10.744c-.77 5.487-8.914 5.372-9.414-.027l1.52-.328c.415 3.765 5.603 3.647 6.215.179.927-5.251 4.258-7.593 4.258-10.949 0-4.359-2.852-6.23-5.905-6.23-3.872 0-6.851 2.473-6.851 7.204L0 8.65C0 2.38 4.21 0 8.37 0 12.222 0 16 2.657 16 7.953c0 3.862-3.713 6.711-4.303 10.978Z" clip-rule="evenodd"/></svg>